<!-- Generator: Adobe Illustrator 21.0.2, SVG Export Plug-In  -->
<svg version="1.1"
	 xmlns="http://www.w3.org/2000/svg" xmlns:xlink="http://www.w3.org/1999/xlink" xmlns:a="http://ns.adobe.com/AdobeSVGViewerExtensions/3.0/"
	 x="0px" y="0px" width="172.9px" height="89.1px" viewBox="0 0 172.9 89.1" style="enable-background:new 0 0 172.9 89.1;"
	 xml:space="preserve">
<style type="text/css">
	.st0{fill:#2E3092;}
	.st1{fill:#0095DA;}
	.st2{fill:#6D6E71;}
	.st3{fill:#BCBEC0;}
</style>
<defs>
</defs>
<g>
	<path d="M56.1,32.2h1.6c0.9,0,1.5,0,1.8,0.1c0.4,0.1,0.8,0.3,1.1,0.7c0.3,0.4,0.4,0.8,0.4,1.3c0,0.5-0.1,1-0.4,1.3
		c-0.3,0.4-0.7,0.6-1.1,0.7c-0.4,0.1-1,0.1-2,0.1h-0.6v3.7h-0.8V32.2z M56.9,33v2.7l1.3,0c0.5,0,0.9,0,1.2-0.2
		c0.2-0.1,0.4-0.3,0.6-0.5c0.1-0.2,0.2-0.5,0.2-0.8c0-0.3-0.1-0.5-0.2-0.7c-0.1-0.2-0.3-0.4-0.6-0.5c-0.2-0.1-0.6-0.1-1.1-0.1H56.9z
		"/>
	<path d="M65.8,32.2l3.6,8.1h-0.8l-1.2-2.6H64l-1.2,2.6h-0.9l3.7-8.1H65.8z M65.7,33.9l-1.3,2.9H67L65.7,33.9z"/>
	<path d="M69.8,33v-0.8h4.3V33h-1.7v7.3h-0.8V33H69.8z"/>
	<path d="M75.3,32.2h4.5V33H76v2.5h3.7v0.8H76v3.2h3.7v0.8h-4.5V32.2z"/>
	<path d="M81.1,40.3v-8.1h0.2l5.2,6.2v-6.2h0.8v8.1h-0.2l-5.2-6.1v6.1H81.1z"/>
	<path d="M88.4,33v-0.8h4.3V33h-1.7v7.3h-0.8V33H88.4z"/>
	<path d="M96.8,32.2h0.8v7.3h3v0.8h-3.8V32.2z"/>
	<path d="M105,32.2l3.6,8.1h-0.8l-1.2-2.6h-3.4l-1.2,2.6h-0.9l3.7-8.1H105z M104.9,33.9l-1.3,2.9h2.7L104.9,33.9z"/>
	<path d="M109.4,32.2h0.8l1.6,5.8l2.2-5.8h0.2l2.2,5.8l1.6-5.8h0.8l-2.2,8.1h-0.1l-2.3-6.1l-2.4,6.1h-0.1L109.4,32.2z"/>
	<path d="M123.3,32.2h3.9V33h-3.1v2.5h3.1v0.8h-3.1v4h-0.8V32.2z"/>
	<path d="M128.5,32.2h0.8v8.1h-0.8V32.2z"/>
	<path d="M131.1,32.2h1.6c0.9,0,1.5,0,1.8,0.1c0.5,0.1,0.8,0.3,1.1,0.7c0.3,0.4,0.4,0.8,0.4,1.3c0,0.4-0.1,0.8-0.3,1.2
		c-0.2,0.3-0.5,0.6-0.9,0.8c-0.4,0.2-0.9,0.3-1.5,0.3l2.8,3.7h-1l-2.8-3.7h-0.4v3.7h-0.8V32.2z M131.9,33v2.7l1.3,0
		c0.5,0,0.9,0,1.2-0.2c0.3-0.1,0.4-0.3,0.6-0.5c0.1-0.2,0.2-0.5,0.2-0.8c0-0.3-0.1-0.5-0.2-0.7c-0.1-0.2-0.3-0.4-0.6-0.5
		c-0.2-0.1-0.6-0.1-1.2-0.1H131.9z"/>
	<path d="M137.3,40.3l1.1-8.1h0.1l3.2,6.6l3.1-6.6h0.1l1.1,8.1h-0.8l-0.8-5.8l-2.8,5.8h-0.2l-2.8-5.8l-0.8,5.8H137.3z"/>
</g>
<g>
	<g>
		<path class="st0" d="M74.7,65.5l3.5-11.4h0.9l-3.9,12.6 M74.7,68.1l-7.1,19.9h-0.9l-13.3-36h0.9l12.9,34.8l7.1-19.9"/>
		<path class="st0" d="M67.6,89.1h-0.9c-0.5,0-1-0.3-1.1-0.8l-13.3-36c-0.1-0.4-0.1-0.8,0.1-1.1c0.2-0.3,0.6-0.5,1-0.5h0.9
			c0.5,0,1,0.3,1.1,0.8l11.8,31.7l6-16.8c0.1-0.2,0.2-0.4,0.4-0.6c0-0.2,0-0.4,0-0.6l3.5-11.4c0.2-0.5,0.6-0.9,1.2-0.9h0.9
			c0.4,0,0.7,0.2,1,0.5c0.2,0.3,0.3,0.7,0.2,1.1l-3.9,12.6c-0.1,0.2-0.2,0.4-0.4,0.6c0.1,0.2,0.1,0.5,0,0.7l-7.1,19.9
			C68.6,88.8,68.1,89.1,67.6,89.1z"/>
	</g>
	<g>
		<path class="st0" d="M107.1,87c1.3,0,2.6-0.2,3.8-0.7c1.2-0.5,2.2-1.2,3.1-2l0.7,0.6c-1,0.9-2.1,1.7-3.4,2.2
			c-1.3,0.5-2.7,0.8-4.2,0.8c-1.5,0-2.9-0.3-4.2-0.8c-1.3-0.5-2.5-1.3-3.4-2.2l-0.6-0.6c-0.9-1-1.7-2.1-2.2-3.4
			c-0.5-1.3-0.8-2.7-0.8-4.2c0-1.5,0.3-3,0.9-4.3c0.6-1.4,1.4-2.5,2.4-3.6c1-1,2.2-1.8,3.6-2.4c1.4-0.6,2.8-0.9,4.3-0.9
			c1.5,0,2.9,0.3,4.2,0.8c1.3,0.5,2.5,1.3,3.4,2.2l0.6,0.6l-15.2,15.2c0.9,0.9,2,1.5,3.2,2C104.5,86.8,105.8,87,107.1,87z
			 M96.8,76.7c0,1.3,0.2,2.6,0.7,3.8c0.5,1.2,1.2,2.3,2,3.2L114.1,69c-0.9-0.8-1.9-1.5-3.1-2c-1.2-0.5-2.5-0.7-3.8-0.7
			c-1.4,0-2.8,0.3-4,0.8c-1.3,0.5-2.3,1.3-3.3,2.2c-0.9,0.9-1.7,2-2.2,3.3C97.1,73.9,96.8,75.3,96.8,76.7z"/>
		<path class="st0" d="M107.1,89.1c-1.6,0-3.2-0.3-4.6-0.9c-1.4-0.6-2.7-1.4-3.8-2.4l-0.6-0.6c-1-1.1-1.9-2.4-2.5-3.8
			c-0.6-1.4-0.9-3-0.9-4.6c0-1.7,0.3-3.3,1-4.8c0.6-1.5,1.5-2.8,2.7-4c1.1-1.1,2.5-2,4-2.7c2.9-1.3,6.5-1.3,9.5-0.1
			c1.4,0.6,2.7,1.4,3.8,2.4l0.6,0.6c0.2,0.2,0.4,0.5,0.4,0.9c0,0.3-0.1,0.6-0.4,0.9l-14.3,14.3c0.6,0.4,1.2,0.7,1.8,1
			c2.1,0.9,4.6,0.9,6.7,0c1-0.4,2-1,2.8-1.8c0.5-0.4,1.2-0.4,1.7,0l0.7,0.6c0.2,0.2,0.4,0.5,0.4,0.9c0,0.3-0.1,0.7-0.4,0.9
			c-1.1,1-2.4,1.8-3.8,2.4C110.3,88.8,108.8,89.1,107.1,89.1z M107.1,67.5c-1.3,0-2.5,0.2-3.6,0.7c-1.1,0.5-2.1,1.2-2.9,2
			c-0.8,0.8-1.5,1.8-2,2.9c-0.5,1.1-0.7,2.3-0.7,3.5c0,1.2,0.2,2.3,0.6,3.4c0.3,0.7,0.6,1.3,1,1.8l12.7-12.7c-0.5-0.4-1.1-0.7-1.8-1
			C109.4,67.7,108.3,67.5,107.1,67.5z"/>
	</g>
	<g>
		<path class="st0" d="M143.2,87.1v0.8h-21.1v-36h0.9v35.2H143.2z"/>
		<path class="st0" d="M143.2,89.1h-21.1c-0.7,0-1.2-0.5-1.2-1.2v-36c0-0.7,0.5-1.2,1.2-1.2h0.9c0.7,0,1.2,0.5,1.2,1.2v34h19
			c0.7,0,1.2,0.5,1.2,1.2v0.8C144.4,88.6,143.9,89.1,143.2,89.1z"/>
	</g>
	<g>
		<path class="st0" d="M171.7,87.1v0.8h-21.1v-36h0.9v35.2H171.7z"/>
		<path class="st0" d="M171.7,89.1h-21.1c-0.7,0-1.2-0.5-1.2-1.2v-36c0-0.7,0.5-1.2,1.2-1.2h0.9c0.7,0,1.2,0.5,1.2,1.2v34h19
			c0.7,0,1.2,0.5,1.2,1.2v0.8C172.9,88.6,172.3,89.1,171.7,89.1z"/>
	</g>
	<g>
		<path class="st1" d="M75.2,66.8l7.1,19.9l12.9-34.8h0.9l-13.4,36h-0.9l-7.1-19.9l-0.5-1.3l-3.9-12.6h0.9l3.4,11.4L75.2,66.8z"/>
		<path class="st1" d="M82.7,89.1h-0.9c-0.5,0-1-0.3-1.1-0.8l-7.6-21.2l-3.9-12.7c-0.1-0.4,0-0.8,0.2-1.1c0.2-0.3,0.6-0.5,1-0.5h0.9
			c0.5,0,1,0.4,1.2,0.9l3.8,12.6l6,16.8L94,51.5c0.2-0.5,0.6-0.8,1.1-0.8h0.9c0.4,0,0.8,0.2,1,0.5c0.2,0.3,0.3,0.7,0.1,1.1l-13.4,36
			C83.7,88.8,83.2,89.1,82.7,89.1z"/>
	</g>
</g>
<g>
	<g>
		<g>
			<g>
				<path class="st2" d="M1.3,38.7c-0.2,0.1-0.3,0.1-0.5,0.1c-0.2,0-0.3-0.1-0.3-0.3c-0.1-0.1-0.1-0.3,0-0.4
					c0.1-0.2,0.2-0.3,0.4-0.4c0.2-0.1,0.3-0.1,0.5-0.1c0.2,0,0.3,0.1,0.3,0.3c0.1,0.1,0.1,0.3,0,0.4C1.6,38.5,1.5,38.7,1.3,38.7z"/>
				<path class="st2" d="M3.6,39.8c0.1-0.1,0.1-0.3,0-0.4c0-0.1-0.1-0.1-0.2-0.2c-0.1,0-0.2,0-0.3,0c-0.1,0-0.3,0.1-0.5,0.2
					c-0.2,0.1-0.4,0.2-0.7,0.4c-0.3,0.2-0.5,0.3-0.7,0.5c-0.2,0.1-0.3,0.2-0.4,0.3c-0.1,0.1-0.1,0.2-0.1,0.3c0,0.1,0,0.1,0.1,0.2
					c0,0.1,0.1,0.1,0.1,0.1c0.1,0,0.1,0.1,0.2,0c0.1,0,0.2,0,0.3-0.1C1.6,41.2,1.8,41.1,2,41l0.4,0.6c-0.2,0.1-0.4,0.2-0.6,0.3
					c-0.2,0.1-0.4,0.1-0.6,0.2c-0.2,0-0.4,0-0.5-0.1c-0.2-0.1-0.3-0.2-0.4-0.4C0.1,41.3,0,41.1,0,40.9c0-0.2,0.1-0.4,0.2-0.6
					c0.1-0.2,0.3-0.4,0.6-0.5c0.2-0.2,0.5-0.3,0.8-0.5c0.3-0.2,0.6-0.3,0.8-0.5c0.3-0.1,0.5-0.2,0.7-0.2c0.2,0,0.4,0,0.6,0.1
					c0.2,0.1,0.4,0.2,0.5,0.5c0.1,0.2,0.2,0.4,0.2,0.6c0,0.2-0.1,0.4-0.2,0.5c-0.1,0.2-0.2,0.3-0.4,0.4c-0.2,0.1-0.3,0.2-0.4,0.3
					l-0.4-0.6C3.4,40.1,3.5,40,3.6,39.8z"/>
				<path class="st2" d="M3.3,41.6c0.2-0.1,0.4-0.2,0.6-0.2c0.2,0,0.3,0,0.5,0.1c0.1,0.1,0.3,0.2,0.4,0.3c0.1,0.2,0.2,0.3,0.2,0.5
					c0,0.2,0,0.3-0.1,0.5c-0.1,0.2-0.2,0.3-0.3,0.5c-0.2,0.2-0.4,0.3-0.6,0.5c-0.2,0.2-0.5,0.3-0.7,0.4c-0.2,0.1-0.4,0.2-0.6,0.2
					c-0.2,0-0.3,0-0.5-0.1C2.1,44.2,2,44.1,1.9,44c-0.1-0.2-0.2-0.3-0.3-0.5c0-0.2,0-0.3,0.1-0.5c0.1-0.2,0.2-0.3,0.3-0.5
					c0.2-0.2,0.4-0.3,0.6-0.5C2.8,41.8,3.1,41.7,3.3,41.6z M2.7,42.9c-0.1,0.1-0.2,0.2-0.3,0.3c-0.1,0.1-0.1,0.2-0.1,0.2
					c0,0.1,0,0.2,0.1,0.2c0.1,0.1,0.2,0.1,0.4,0.1c0.2-0.1,0.4-0.2,0.8-0.5c0.3-0.3,0.6-0.5,0.7-0.6c0.1-0.2,0.1-0.3,0-0.4
					C4.2,42.1,4.1,42,4,42c-0.1,0-0.2,0-0.3,0.1c-0.1,0-0.2,0.1-0.3,0.2c-0.1,0.1-0.3,0.2-0.4,0.3C2.9,42.7,2.8,42.8,2.7,42.9z"/>
				<path class="st2" d="M6.1,43.5l-0.3,0.3l0,0c0.2-0.1,0.3-0.1,0.5,0c0.1,0,0.3,0.1,0.4,0.2c0.2,0.2,0.2,0.3,0.2,0.5
					c0,0.2-0.2,0.4-0.4,0.7l-1.8,1.8l-0.5-0.5l1.7-1.6C5.9,44.6,6,44.5,6,44.4c0-0.1,0-0.2-0.1-0.2C5.7,44,5.5,44,5.2,44.3l-1.6,1.6
					l-0.5-0.5L5.6,43L6.1,43.5z"/>
				<path class="st2" d="M6.2,47C6.1,47.1,6,47.2,6,47.3c0,0.1,0,0.2,0.1,0.3c0.1,0.1,0.2,0.1,0.3,0.1c0.1,0,0.2-0.1,0.3-0.2
					c0.1-0.1,0.1-0.2,0.1-0.2c0-0.1,0-0.2-0.1-0.2l-0.2-0.5c-0.1-0.2-0.1-0.4-0.1-0.6c0-0.2,0.1-0.4,0.3-0.6
					c0.1-0.1,0.2-0.2,0.3-0.3c0.1-0.1,0.2-0.1,0.4-0.1c0.1,0,0.3,0,0.4,0c0.1,0,0.3,0.1,0.4,0.2c0.3,0.2,0.4,0.4,0.4,0.7
					c0,0.2-0.1,0.5-0.3,0.7l-0.1,0.1l-0.5-0.4c0.1-0.1,0.2-0.3,0.2-0.3c0-0.1,0-0.2-0.1-0.3c-0.1-0.1-0.1-0.1-0.2-0.1
					c-0.1,0-0.2,0.1-0.3,0.1c-0.1,0.1-0.1,0.1-0.1,0.2c0,0.1,0,0.2,0.1,0.3l0.2,0.4c0.1,0.2,0.2,0.4,0.1,0.6c0,0.2-0.1,0.4-0.3,0.6
					c-0.1,0.1-0.2,0.2-0.4,0.3c-0.1,0.1-0.3,0.1-0.4,0.1c-0.1,0-0.3,0-0.4-0.1c-0.1-0.1-0.2-0.1-0.4-0.2c-0.2-0.1-0.3-0.3-0.3-0.4
					c-0.1-0.1-0.1-0.2-0.1-0.4c0-0.1,0-0.2,0.1-0.4c0.1-0.1,0.1-0.2,0.3-0.4l0.1-0.1L6.2,47L6.2,47z"/>
				<path class="st2" d="M8.6,49.6c-0.2,0.1-0.3,0.1-0.5,0.1c-0.1,0-0.3-0.1-0.4-0.1c-0.2-0.1-0.3-0.3-0.3-0.5
					c0-0.2,0.1-0.4,0.3-0.7l1.4-2.1l0.6,0.4l-1.3,2c-0.1,0.2-0.2,0.3-0.2,0.4c0,0.1,0,0.2,0.1,0.2c0.2,0.1,0.4,0.1,0.6-0.3l1.3-1.9
					l0.6,0.4l-1.9,2.8l-0.6-0.4L8.6,49.6L8.6,49.6z"/>
				<path class="st2" d="M12.4,47.1l-2.3,4l-0.6-0.4l2.3-4L12.4,47.1z"/>
				<path class="st2" d="M13.5,47.8l-0.4,0.9l0.4,0.2l-0.3,0.5l-0.4-0.2L12,50.8c-0.1,0.1-0.1,0.2-0.1,0.3c0,0.1,0.1,0.1,0.1,0.2
					c0,0,0,0,0.1,0c0,0,0,0,0.1,0l-0.3,0.5c-0.1,0-0.1-0.1-0.2-0.1c-0.1,0-0.1-0.1-0.2-0.1c-0.1-0.1-0.2-0.1-0.3-0.2
					c-0.1-0.1-0.1-0.1-0.1-0.2c0-0.1,0-0.2,0-0.3c0-0.1,0.1-0.2,0.2-0.4l0.9-1.8l-0.3-0.2l0.3-0.5l0.3,0.2l0.4-0.9L13.5,47.8z"/>
				<path class="st2" d="M14.4,49.2L13,52.4l-0.7-0.3l1.3-3.2L14.4,49.2z M14.8,48.1l-0.3,0.7l-0.7-0.3l0.3-0.7L14.8,48.1z"/>
				<path class="st2" d="M15.4,49.6L15.3,50l0,0c0.1-0.1,0.3-0.2,0.4-0.3c0.1,0,0.3,0,0.4,0c0.2,0.1,0.4,0.2,0.4,0.4
					c0.1,0.2,0,0.4-0.1,0.8l-0.8,2.4L15,53.1l0.7-2.2c0.1-0.2,0.1-0.3,0-0.4c0-0.1-0.1-0.1-0.2-0.2c-0.2-0.1-0.4,0.1-0.5,0.4
					l-0.7,2.2l-0.7-0.2l1.1-3.3L15.4,49.6z"/>
				<path class="st2" d="M18.6,53.8c-0.1,0.4-0.2,0.7-0.5,0.9c-0.2,0.2-0.5,0.2-1,0.1c-0.3-0.1-0.5-0.2-0.6-0.4
					c-0.1-0.2-0.2-0.4-0.1-0.7l0.7,0.1c0,0.1,0,0.2,0.1,0.3c0,0,0.1,0.1,0.1,0.1c0,0,0.1,0,0.1,0c0.1,0,0.3,0,0.3-0.1
					c0.1-0.1,0.1-0.2,0.2-0.4l0.1-0.4l0,0c-0.1,0.1-0.2,0.2-0.3,0.2c-0.1,0.1-0.2,0.1-0.3,0c-0.3-0.1-0.5-0.2-0.6-0.5
					c-0.1-0.3-0.1-0.7,0.1-1.4c0-0.2,0.1-0.4,0.2-0.6c0.1-0.2,0.1-0.4,0.2-0.5c0.1-0.2,0.2-0.3,0.3-0.3c0.1-0.1,0.3-0.1,0.5-0.1
					c0.1,0,0.2,0.1,0.3,0.2c0.1,0.1,0.2,0.2,0.2,0.4h0l0.1-0.4l0.7,0.1L18.6,53.8z M17.4,52.4c0,0.1,0,0.2,0,0.3
					c0,0.1,0,0.2,0.1,0.2c0,0.1,0.1,0.1,0.2,0.1c0.1,0,0.1,0,0.2,0c0.1,0,0.1-0.1,0.2-0.2c0-0.1,0.1-0.2,0.1-0.3
					c0-0.1,0.1-0.2,0.1-0.4c0.1-0.4,0.1-0.7,0.1-0.9c0-0.2-0.1-0.3-0.2-0.3c-0.1,0-0.1,0-0.2,0c-0.1,0-0.1,0.1-0.2,0.2
					c0,0.1-0.1,0.2-0.1,0.4c0,0.2-0.1,0.3-0.1,0.6C17.5,52.2,17.4,52.3,17.4,52.4z"/>
				<path class="st2" d="M21.4,50.8c0-0.1,0-0.2-0.1-0.3c0-0.1-0.1-0.1-0.1-0.2c0-0.1-0.1-0.1-0.2-0.1c-0.2,0-0.3,0.1-0.4,0.3
					c-0.1,0.2-0.2,0.6-0.2,1.2c0,0.3,0,0.5,0,0.7c0,0.2,0,0.4,0,0.6c0,0.2,0.1,0.3,0.1,0.4c0.1,0.1,0.1,0.1,0.3,0.1c0,0,0.1,0,0.2,0
					c0.1,0,0.1-0.1,0.2-0.1c0.1-0.1,0.1-0.1,0.1-0.2c0-0.1,0.1-0.2,0.1-0.3l0-0.5l-0.5,0l0.1-0.7l1.2,0.1l-0.2,2.4l-0.6-0.1l0-0.4h0
					c-0.1,0.2-0.2,0.3-0.4,0.3c-0.1,0.1-0.3,0.1-0.5,0.1c-0.2,0-0.4-0.1-0.5-0.2c-0.1-0.1-0.2-0.3-0.3-0.5c-0.1-0.2-0.1-0.5-0.1-0.8
					c0-0.3,0-0.6,0.1-1c0-0.4,0.1-0.7,0.2-1c0.1-0.3,0.2-0.5,0.3-0.7c0.1-0.2,0.3-0.3,0.4-0.4c0.2-0.1,0.4-0.1,0.6-0.1
					c0.4,0,0.7,0.2,0.9,0.5c0.2,0.3,0.2,0.6,0.2,1.1l-0.7-0.1C21.4,51,21.4,50.9,21.4,50.8z"/>
				<path class="st2" d="M23.3,50.9l0,0.5h0c0.1-0.2,0.2-0.3,0.3-0.4c0.1-0.1,0.2-0.2,0.4-0.2c0,0,0,0,0.1,0c0,0,0,0,0.1,0l0,0.8
					c0,0-0.1,0-0.1,0c0,0-0.1,0-0.1,0c-0.1,0-0.1,0-0.2,0c-0.1,0-0.1,0.1-0.2,0.1c-0.1,0.1-0.1,0.1-0.1,0.2c0,0.1,0,0.2,0,0.3l0,2.1
					l-0.7,0l-0.1-3.4L23.3,50.9z"/>
				<path class="st2" d="M24.3,51.8c0-0.2,0.1-0.4,0.1-0.6c0.1-0.2,0.2-0.3,0.3-0.4c0.1-0.1,0.3-0.1,0.5-0.2c0.2,0,0.4,0,0.5,0.1
					c0.2,0.1,0.3,0.2,0.4,0.3c0.1,0.1,0.2,0.3,0.2,0.5c0.1,0.2,0.1,0.5,0.1,0.8c0,0.3,0,0.6,0,0.8c0,0.2-0.1,0.4-0.1,0.6
					c-0.1,0.2-0.2,0.3-0.3,0.4c-0.1,0.1-0.3,0.1-0.5,0.2c-0.2,0-0.4,0-0.5-0.1c-0.2-0.1-0.3-0.2-0.4-0.3c-0.1-0.1-0.2-0.3-0.2-0.5
					c-0.1-0.2-0.1-0.5-0.1-0.8C24.3,52.3,24.3,52.1,24.3,51.8z M25.1,53c0,0.1,0,0.3,0.1,0.4c0,0.1,0.1,0.2,0.1,0.2
					c0.1,0.1,0.1,0.1,0.2,0.1c0.1,0,0.2-0.1,0.3-0.3c0-0.2,0-0.5,0-0.9c0-0.4-0.1-0.7-0.2-0.9c-0.1-0.2-0.2-0.3-0.3-0.3
					c-0.1,0-0.2,0-0.2,0.1c0,0.1-0.1,0.2-0.1,0.3c0,0.1,0,0.2,0,0.4c0,0.2,0,0.3,0,0.5C25.1,52.7,25.1,52.9,25.1,53z"/>
				<path class="st2" d="M28.7,53.3c0,0.2-0.1,0.3-0.2,0.4c-0.1,0.1-0.2,0.2-0.4,0.2c-0.2,0-0.4,0-0.6-0.1c-0.2-0.1-0.3-0.3-0.3-0.7
					l-0.5-2.5l0.7-0.1l0.5,2.3c0,0.2,0.1,0.3,0.1,0.4c0.1,0.1,0.2,0.1,0.3,0.1c0.2,0,0.3-0.3,0.3-0.6l-0.5-2.2l0.7-0.1l0.7,3.4
					l-0.7,0.1L28.7,53.3L28.7,53.3z"/>
				<path class="st2" d="M29.9,49.9l0.1,0.3l0,0c0-0.2,0.1-0.3,0.1-0.4c0.1-0.1,0.2-0.2,0.3-0.2c0.3-0.1,0.5,0,0.8,0.2
					c0.2,0.2,0.4,0.6,0.6,1.3c0.2,0.6,0.3,1.1,0.2,1.4c0,0.3-0.2,0.5-0.5,0.6c-0.1,0-0.3,0.1-0.4,0c-0.1,0-0.2-0.1-0.3-0.2l0,0
					l0.4,1.4l-0.7,0.2l-1.4-4.3L29.9,49.9z M30.7,52.3c0.1,0.2,0.2,0.2,0.4,0.2c0.2,0,0.2-0.2,0.2-0.4c0-0.2-0.1-0.5-0.2-0.8
					c-0.1-0.4-0.2-0.6-0.3-0.8c-0.1-0.2-0.2-0.2-0.4-0.2c-0.2,0-0.2,0.2-0.2,0.4c0,0.2,0.1,0.5,0.2,0.8
					C30.5,51.9,30.6,52.2,30.7,52.3z"/>
				<path class="st2" d="M33.2,49.9c0.1,0.2,0.1,0.3,0,0.5c0,0.2-0.1,0.3-0.3,0.3c-0.1,0.1-0.3,0.1-0.4,0c-0.1-0.1-0.3-0.2-0.3-0.4
					c-0.1-0.2-0.1-0.4,0-0.5c0-0.2,0.1-0.3,0.3-0.3c0.1-0.1,0.3-0.1,0.4,0C33.1,49.6,33.2,49.7,33.2,49.9z"/>
				<path class="st2" d="M33.9,47c0.2-0.1,0.3-0.1,0.5-0.1c0.2,0,0.3,0,0.4,0.1c0.1,0.1,0.2,0.2,0.4,0.3c0.1,0.1,0.2,0.3,0.3,0.4
					c0.1,0.2,0.2,0.4,0.2,0.6c0,0.2,0,0.3,0,0.5c0,0.1-0.1,0.3-0.2,0.4c-0.1,0.1-0.2,0.2-0.4,0.3l-0.4,0.2l0.9,1.6l-0.7,0.4l-2.2-4
					L33.9,47z M34.7,48.9c0.1-0.1,0.2-0.2,0.2-0.3c0-0.1,0-0.3-0.1-0.5c-0.1-0.2-0.2-0.3-0.4-0.4c-0.1-0.1-0.3-0.1-0.4,0l-0.3,0.2
					l0.7,1.2L34.7,48.9z"/>
				<path class="st2" d="M36,48.2c-0.1-0.2-0.2-0.3-0.2-0.5c0-0.1,0-0.3,0-0.4c0-0.1,0.1-0.2,0.2-0.3c0.1-0.1,0.2-0.2,0.3-0.3
					c0.2-0.1,0.3-0.2,0.5-0.2c0.1,0,0.3,0,0.4,0c0.1,0,0.2,0.1,0.3,0.2c0.1,0.1,0.2,0.2,0.3,0.3l1,1.5c0.1,0.1,0.2,0.2,0.2,0.3
					c0.1,0.1,0.1,0.1,0.2,0.2l-0.6,0.4c0,0-0.1-0.1-0.1-0.1c0,0-0.1-0.1-0.1-0.1l0,0c0,0.2,0,0.3,0,0.5c-0.1,0.1-0.2,0.2-0.3,0.3
					C37.9,50,37.8,50,37.7,50c-0.1,0-0.2,0-0.3-0.1c-0.1,0-0.2-0.1-0.3-0.2c-0.1-0.1-0.2-0.2-0.2-0.3c-0.1-0.1-0.2-0.3-0.2-0.4
					c0-0.1-0.1-0.2-0.1-0.3c0-0.1,0-0.2,0.1-0.3c0-0.1,0.1-0.2,0.2-0.3l0.3-0.3c0.1-0.1,0.1-0.2,0.1-0.2c0-0.1,0-0.2-0.1-0.3
					c-0.1-0.1-0.2-0.2-0.2-0.2c-0.1,0-0.2,0-0.3,0.1c-0.1,0.1-0.1,0.1-0.1,0.2s0,0.2,0.1,0.3l0.1,0.1L36,48.2L36,48.2z M37.5,48.2
					c0,0.1-0.1,0.1-0.1,0.1c-0.1,0.1-0.2,0.2-0.2,0.3c0,0.1,0,0.2,0.1,0.4c0.1,0.1,0.2,0.2,0.2,0.2c0.1,0.1,0.2,0,0.3,0
					c0,0,0.1-0.1,0.1-0.1c0,0,0.1-0.1,0.1-0.2c0-0.1,0-0.1,0-0.2c0-0.1,0-0.1-0.1-0.2L37.5,48C37.5,48.1,37.5,48.1,37.5,48.2z"/>
				<path class="st2" d="M37.6,44.6l0.6,0.8l0.3-0.3l0.4,0.5l-0.3,0.3l1.2,1.4c0.1,0.1,0.2,0.2,0.2,0.2c0.1,0,0.1,0,0.2-0.1
					c0,0,0,0,0.1-0.1c0,0,0,0,0.1-0.1l0.4,0.5c-0.1,0.1-0.1,0.1-0.2,0.2c-0.1,0.1-0.1,0.1-0.2,0.2c-0.1,0.1-0.2,0.2-0.3,0.2
					c-0.1,0-0.2,0-0.2,0c-0.1,0-0.2-0.1-0.3-0.2c-0.1-0.1-0.2-0.2-0.3-0.3L38,46.3l-0.3,0.2L37.3,46l0.3-0.2L37,45.1L37.6,44.6z"/>
				<path class="st2" d="M40.6,46.1c0.1,0.1,0.1,0.1,0.2,0.2c0.1,0.1,0.2,0.1,0.2,0.1c0.1,0,0.1,0.1,0.2,0.1c0.1,0,0.1,0,0.2-0.1
					c0.1-0.1,0.1-0.2,0.1-0.3c0-0.1-0.1-0.3-0.3-0.4l0.5-0.5c0.3,0.3,0.4,0.6,0.5,0.8c0,0.3-0.1,0.5-0.3,0.8
					c-0.2,0.2-0.4,0.3-0.5,0.3c-0.2,0-0.4,0-0.5-0.1c-0.2-0.1-0.3-0.2-0.5-0.3c-0.2-0.1-0.3-0.3-0.5-0.4c-0.2-0.2-0.3-0.3-0.4-0.5
					c-0.1-0.2-0.2-0.3-0.3-0.5c-0.1-0.2-0.1-0.3,0-0.5c0-0.2,0.1-0.3,0.3-0.5c0.2-0.1,0.3-0.2,0.5-0.3c0.2,0,0.3,0,0.5,0
					c0.2,0.1,0.3,0.1,0.5,0.3c0.2,0.1,0.3,0.3,0.5,0.5l0.1,0.1l-1,1L40.6,46.1z M40.3,44.7c-0.1-0.1-0.2-0.1-0.2-0.1
					c-0.1,0-0.1,0-0.2,0c-0.1,0-0.1,0-0.2,0.1c0,0-0.1,0.1-0.1,0.2c0,0.1,0,0.1,0,0.2c0,0.1,0.1,0.1,0.1,0.2c0,0.1,0.1,0.1,0.2,0.2
					l0.1,0.1l0.5-0.5C40.4,44.9,40.4,44.8,40.3,44.7z"/>
				<path class="st2" d="M40.8,42.8l0.3,0.3l0,0C41,42.8,41,42.7,41,42.5c0-0.1,0.1-0.3,0.2-0.4c0.1-0.2,0.3-0.3,0.5-0.3
					c0.2,0,0.4,0.1,0.7,0.3l2,1.6l-0.5,0.6l-1.8-1.5c-0.1-0.1-0.3-0.2-0.3-0.2c-0.1,0-0.2,0-0.2,0.1c-0.2,0.2-0.1,0.4,0.2,0.7
					l1.8,1.5L43,45.5l-2.6-2.2L40.8,42.8z"/>
				<path class="st2" d="M41.6,40l0.8,0.6l0.2-0.3l0.5,0.3L43,40.9l1.5,1.1c0.1,0.1,0.2,0.1,0.3,0.1c0.1,0,0.1,0,0.2-0.1
					c0,0,0,0,0-0.1c0,0,0,0,0-0.1l0.5,0.4c0,0.1-0.1,0.1-0.1,0.2c0,0.1-0.1,0.1-0.1,0.2c-0.1,0.1-0.2,0.2-0.2,0.3
					c-0.1,0.1-0.2,0.1-0.2,0.1c-0.1,0-0.2,0-0.3-0.1c-0.1-0.1-0.2-0.1-0.4-0.2l-1.6-1.1l-0.2,0.3l-0.5-0.3l0.2-0.3l-0.8-0.6L41.6,40
					z"/>
				<path class="st2" d="M44.1,37.5c-0.1,0-0.2,0-0.3,0c-0.1,0-0.2,0-0.2,0c-0.1,0-0.1,0.1-0.2,0.1c-0.1,0.2,0,0.3,0.2,0.5
					c0.2,0.2,0.5,0.4,1,0.6c0.2,0.1,0.5,0.2,0.7,0.3c0.2,0.1,0.4,0.1,0.5,0.2c0.2,0,0.3,0,0.4,0c0.1,0,0.2-0.1,0.2-0.2
					c0,0,0-0.1,0-0.2c0-0.1,0-0.1-0.1-0.2c0-0.1-0.1-0.1-0.2-0.2c-0.1-0.1-0.2-0.1-0.3-0.2l-0.4-0.2l-0.2,0.4l-0.6-0.3l0.5-1.1
					l2.2,1.1l-0.2,0.5L47,38.6l0,0c0.1,0.2,0.2,0.3,0.2,0.5c0,0.1,0,0.3-0.1,0.5c-0.1,0.2-0.2,0.4-0.4,0.4c-0.2,0.1-0.3,0.1-0.6,0.1
					c-0.2,0-0.5-0.1-0.8-0.2c-0.3-0.1-0.6-0.2-1-0.4c-0.3-0.2-0.6-0.3-0.9-0.5c-0.2-0.2-0.4-0.3-0.6-0.5c-0.1-0.2-0.2-0.4-0.2-0.5
					c0-0.2,0-0.4,0.1-0.6c0.2-0.4,0.4-0.6,0.7-0.6c0.3-0.1,0.7,0,1.1,0.2l-0.3,0.6C44.3,37.6,44.2,37.5,44.1,37.5z"/>
				<path class="st2" d="M44.9,35.8l0.4,0.2l0,0c-0.1-0.1-0.2-0.3-0.3-0.4c-0.1-0.1-0.1-0.3,0-0.4c0,0,0,0,0-0.1c0,0,0,0,0-0.1
					l0.8,0.3c0,0,0,0.1,0,0.1c0,0,0,0.1,0,0.1c0,0.1,0,0.1,0,0.2c0,0.1,0,0.1,0,0.2c0,0.1,0.1,0.1,0.1,0.2c0.1,0.1,0.1,0.1,0.3,0.1
					l1.9,0.7l-0.3,0.7l-3.2-1.2L44.9,35.8z"/>
				<path class="st2" d="M46.1,35.1c-0.2-0.1-0.4-0.2-0.5-0.3c-0.1-0.1-0.2-0.3-0.2-0.4c0-0.2,0-0.3,0-0.5c0.1-0.2,0.1-0.4,0.2-0.5
					c0.1-0.1,0.2-0.2,0.4-0.2c0.2,0,0.4,0,0.6,0c0.2,0,0.5,0.1,0.8,0.2c0.3,0.1,0.5,0.2,0.7,0.3c0.2,0.1,0.4,0.2,0.5,0.3
					c0.1,0.1,0.2,0.3,0.2,0.4c0,0.2,0,0.3,0,0.5c-0.1,0.2-0.1,0.4-0.2,0.5c-0.1,0.1-0.2,0.2-0.4,0.2c-0.2,0-0.4,0.1-0.6,0
					c-0.2,0-0.5-0.1-0.8-0.2C46.6,35.3,46.4,35.2,46.1,35.1z M47.5,34.8c0.1,0,0.3,0,0.4,0.1c0.1,0,0.2,0,0.3,0
					c0.1,0,0.1-0.1,0.1-0.2c0-0.1,0-0.3-0.2-0.4c-0.2-0.1-0.5-0.2-0.9-0.3c-0.4-0.1-0.7-0.2-0.9-0.2c-0.2,0-0.3,0.1-0.3,0.2
					c0,0.1,0,0.2,0,0.2c0,0.1,0.1,0.1,0.2,0.2c0.1,0.1,0.2,0.1,0.4,0.2c0.1,0,0.3,0.1,0.5,0.1C47.2,34.7,47.4,34.8,47.5,34.8z"/>
				<path class="st2" d="M49.1,31.5c0.2,0.1,0.3,0.2,0.3,0.4c0.1,0.1,0.1,0.3,0,0.4c0,0.2-0.1,0.4-0.3,0.5c-0.2,0.1-0.4,0.1-0.8,0.1
					l-2.5-0.4l0.1-0.7l2.3,0.4c0.2,0,0.3,0,0.4,0c0.1,0,0.1-0.1,0.1-0.2c0-0.3-0.1-0.4-0.5-0.5l-2.2-0.4l0.1-0.7l3.4,0.6l-0.1,0.7
					L49.1,31.5L49.1,31.5z"/>
				<path class="st2" d="M46.3,29.2l0.4,0v0c-0.2-0.1-0.3-0.2-0.3-0.3c-0.1-0.1-0.1-0.2-0.1-0.4c0-0.3,0.2-0.5,0.5-0.6
					c0.3-0.1,0.8-0.2,1.4-0.1c0.6,0,1.1,0.1,1.4,0.3c0.3,0.2,0.4,0.4,0.4,0.7c0,0.1,0,0.3-0.1,0.3c-0.1,0.1-0.2,0.2-0.3,0.2v0
					l1.4,0.1l0,0.7l-4.5-0.2L46.3,29.2z M48.9,29.3c0.2,0,0.3-0.1,0.3-0.3c0-0.2-0.1-0.3-0.3-0.3c-0.2-0.1-0.5-0.1-0.8-0.1
					c-0.4,0-0.7,0-0.8,0c-0.2,0-0.3,0.1-0.3,0.3c0,0.2,0.1,0.3,0.3,0.3c0.2,0.1,0.5,0.1,0.8,0.1C48.4,29.3,48.7,29.3,48.9,29.3z"/>
				<path class="st2" d="M47.5,26.1c0.2,0,0.4,0,0.5,0.1c0.1,0.1,0.2,0.2,0.2,0.4c0,0.2-0.1,0.3-0.2,0.4c-0.1,0.1-0.3,0.2-0.5,0.2
					c-0.2,0-0.4,0-0.5-0.1c-0.1-0.1-0.2-0.2-0.2-0.4c0-0.2,0.1-0.3,0.2-0.4C47.2,26.2,47.3,26.1,47.5,26.1z"/>
				<path class="st2" d="M45.8,24.2c-0.1,0.1-0.2,0.2-0.2,0.4c0,0.1,0.1,0.2,0.1,0.2c0.1,0.1,0.2,0.1,0.3,0.1c0.1,0,0.3,0,0.5,0
					c0.2,0,0.5,0,0.8-0.1c0.3,0,0.6-0.1,0.8-0.1c0.2,0,0.4-0.1,0.5-0.2c0.1-0.1,0.2-0.1,0.2-0.2c0-0.1,0-0.1,0-0.2
					c0-0.1,0-0.1-0.1-0.2c0-0.1-0.1-0.1-0.2-0.1c-0.1,0-0.2,0-0.4,0c-0.2,0-0.4,0-0.6,0L47.6,23c0.2,0,0.5-0.1,0.7,0
					c0.2,0,0.4,0,0.6,0.1c0.2,0.1,0.3,0.2,0.4,0.3c0.1,0.1,0.2,0.3,0.2,0.6c0,0.3,0,0.5-0.1,0.7c-0.1,0.2-0.2,0.3-0.4,0.4
					c-0.2,0.1-0.4,0.2-0.7,0.3c-0.3,0.1-0.6,0.1-0.9,0.2c-0.3,0-0.7,0.1-1,0.1c-0.3,0-0.5,0-0.8-0.1c-0.2-0.1-0.4-0.2-0.5-0.3
					c-0.1-0.1-0.2-0.4-0.3-0.6c0-0.3,0-0.5,0.1-0.7c0.1-0.2,0.2-0.3,0.4-0.4c0.2-0.1,0.3-0.2,0.5-0.2c0.2,0,0.4-0.1,0.5-0.1l0.1,0.7
					C46.2,24,45.9,24.1,45.8,24.2z"/>
				<path class="st2" d="M46.8,22.7c-0.2,0-0.4,0-0.6,0c-0.2,0-0.3-0.1-0.4-0.2c-0.1-0.1-0.2-0.3-0.2-0.5c-0.1-0.2-0.1-0.4,0-0.5
					c0-0.2,0.1-0.3,0.3-0.4c0.1-0.1,0.3-0.2,0.5-0.3c0.2-0.1,0.5-0.2,0.8-0.2c0.3-0.1,0.5-0.1,0.8-0.1c0.2,0,0.4,0,0.6,0
					c0.2,0,0.3,0.1,0.4,0.3c0.1,0.1,0.2,0.3,0.2,0.5c0.1,0.2,0.1,0.4,0,0.5c0,0.2-0.1,0.3-0.2,0.4c-0.1,0.1-0.3,0.2-0.5,0.3
					c-0.2,0.1-0.5,0.2-0.8,0.2C47.3,22.6,47,22.7,46.8,22.7z M47.9,21.7c0.1,0,0.3-0.1,0.4-0.1c0.1,0,0.2-0.1,0.2-0.2
					c0-0.1,0.1-0.1,0-0.2c0-0.1-0.2-0.2-0.3-0.2c-0.2,0-0.5,0-0.9,0.1c-0.4,0.1-0.7,0.2-0.9,0.3c-0.2,0.1-0.2,0.2-0.2,0.4
					c0,0.1,0.1,0.1,0.1,0.2c0.1,0,0.2,0.1,0.3,0.1c0.1,0,0.2,0,0.4,0c0.1,0,0.3-0.1,0.5-0.1C47.6,21.8,47.7,21.8,47.9,21.7z"/>
				<path class="st2" d="M45,19.9l0.4-0.1l0,0c-0.2,0-0.3-0.1-0.5-0.1c-0.1-0.1-0.2-0.2-0.3-0.4c-0.1-0.2-0.1-0.4,0-0.6
					c0.1-0.2,0.3-0.3,0.6-0.4l2.4-0.9L48,18l-2.2,0.8c-0.2,0.1-0.3,0.1-0.3,0.2c0,0.1-0.1,0.2,0,0.3c0.1,0.2,0.3,0.3,0.7,0.2
					l2.1-0.8l0.3,0.7l-3.2,1.2L45,19.9z"/>
				<path class="st2" d="M46.3,16.6c0.1-0.1,0.2-0.2,0.3-0.2c0-0.1,0-0.2,0-0.3c0-0.1-0.1-0.2-0.2-0.2c-0.1,0-0.2,0-0.3,0
					c-0.1,0-0.2,0.1-0.2,0.2c0,0.1,0,0.1,0,0.2l0,0.6c0,0.2,0,0.4-0.1,0.6c-0.1,0.2-0.3,0.3-0.5,0.4c-0.1,0.1-0.3,0.1-0.4,0.1
					c-0.1,0-0.3,0-0.4,0c-0.1,0-0.2-0.1-0.3-0.2c-0.1-0.1-0.2-0.2-0.3-0.4c-0.1-0.3-0.2-0.5-0.1-0.8c0.1-0.2,0.3-0.4,0.5-0.5
					l0.1-0.1l0.3,0.6c-0.2,0.1-0.3,0.2-0.3,0.2c-0.1,0.1-0.1,0.2,0,0.3c0,0.1,0.1,0.1,0.2,0.2c0.1,0,0.2,0,0.3,0
					c0.1,0,0.1-0.1,0.2-0.2c0-0.1,0.1-0.2,0-0.3l0-0.5c0-0.2,0-0.4,0.1-0.6c0.1-0.2,0.3-0.3,0.5-0.4c0.2-0.1,0.3-0.1,0.5-0.1
					c0.1,0,0.3,0,0.4,0c0.1,0,0.2,0.1,0.3,0.2c0.1,0.1,0.2,0.2,0.2,0.4c0.1,0.2,0.1,0.3,0.2,0.5c0,0.1,0,0.3,0,0.4
					c0,0.1-0.1,0.2-0.2,0.3c-0.1,0.1-0.2,0.2-0.4,0.2l-0.1,0.1l-0.3-0.6L46.3,16.6z"/>
				<path class="st2" d="M45.1,13.3c0.2,0,0.3,0,0.5,0.1c0.1,0.1,0.2,0.2,0.3,0.3C46,13.8,46,14,46,14.2c-0.1,0.2-0.2,0.4-0.5,0.6
					l-2.1,1.4l-0.4-0.6l2-1.3c0.2-0.1,0.2-0.2,0.3-0.3c0-0.1,0-0.2,0-0.3c-0.1-0.2-0.4-0.2-0.7,0l-1.9,1.2l-0.4-0.6l2.9-1.8l0.4,0.6
					L45.1,13.3L45.1,13.3z"/>
				<path class="st2" d="M40.6,14l3.6-2.7l0.4,0.6L41,14.6L40.6,14z"/>
				<path class="st2" d="M39.8,13l0.7-0.6L40.3,12l0.5-0.4l0.3,0.3l1.4-1.2c0.1-0.1,0.2-0.2,0.2-0.2c0-0.1,0-0.1-0.1-0.2
					c0,0,0,0-0.1-0.1c0,0,0,0-0.1-0.1l0.5-0.4C43,9.8,43,9.9,43.1,9.9c0.1,0.1,0.1,0.1,0.2,0.2c0.1,0.1,0.2,0.2,0.2,0.3
					c0,0.1,0,0.2,0,0.2c0,0.1-0.1,0.2-0.2,0.3c-0.1,0.1-0.2,0.2-0.3,0.3l-1.5,1.3l0.2,0.3l-0.5,0.4l-0.2-0.3l-0.8,0.6L39.8,13z"/>
				<path class="st2" d="M38.8,12.1l0.5-0.5l0.5,0.5l-0.5,0.5L38.8,12.1z M39.6,11.3l2.5-2.4l0.5,0.5l-2.5,2.4L39.6,11.3z"/>
				<path class="st2" d="M38.8,10.5l0.3-0.3l0,0c-0.2,0.1-0.3,0.1-0.5,0.1c-0.1,0-0.3-0.1-0.4-0.2C38,9.9,37.9,9.7,38,9.5
					c0-0.2,0.1-0.4,0.4-0.7L40,7l0.5,0.5L39,9.2c-0.1,0.1-0.2,0.2-0.2,0.3c0,0.1,0,0.2,0.1,0.2c0.2,0.2,0.4,0.1,0.7-0.2l1.5-1.7
					l0.5,0.5L39.3,11L38.8,10.5z"/>
				<path class="st2" d="M37.6,5.4c0.3-0.4,0.5-0.6,0.8-0.7c0.3-0.1,0.6,0,0.9,0.3c0.3,0.2,0.4,0.4,0.4,0.6c0,0.2,0,0.5-0.2,0.7
					L39,5.9C39,5.8,39.1,5.7,39,5.6c0,0,0-0.1-0.1-0.1c0,0-0.1-0.1-0.1-0.1c-0.1-0.1-0.2-0.1-0.4,0c-0.1,0.1-0.2,0.2-0.3,0.3L38,6
					l0,0c0.1-0.1,0.3-0.1,0.4-0.1c0.1,0,0.2,0,0.3,0.1C38.9,6.2,39,6.4,39,6.7C39,7,38.8,7.4,38.4,8c-0.1,0.2-0.2,0.3-0.4,0.5
					c-0.1,0.2-0.3,0.3-0.4,0.4C37.5,8.9,37.3,9,37.1,9c-0.2,0-0.3,0-0.5-0.1c-0.1-0.1-0.2-0.1-0.2-0.3c0-0.1,0-0.3,0-0.5l0,0
					l-0.2,0.3l-0.6-0.4L37.6,5.4z M38.1,7.1c0.1-0.1,0.1-0.2,0.1-0.3c0-0.1,0-0.2,0-0.2c0-0.1,0-0.1-0.1-0.2c-0.1,0-0.1-0.1-0.2-0.1
					c-0.1,0-0.1,0-0.2,0.1c-0.1,0-0.1,0.1-0.2,0.2c-0.1,0.1-0.2,0.2-0.2,0.3c-0.2,0.3-0.4,0.6-0.4,0.8c-0.1,0.2,0,0.3,0.1,0.4
					c0.1,0,0.1,0.1,0.2,0.1c0.1,0,0.1,0,0.2-0.1c0.1-0.1,0.2-0.2,0.3-0.3c0.1-0.1,0.2-0.3,0.3-0.5C38,7.3,38,7.2,38.1,7.1z"/>
				<path class="st2" d="M33.8,7c0,0.1,0,0.2,0,0.3c0,0.1,0,0.2,0,0.2c0,0.1,0.1,0.1,0.1,0.2c0.2,0.1,0.3,0,0.5-0.1
					c0.2-0.2,0.4-0.5,0.7-1c0.1-0.2,0.2-0.5,0.3-0.7c0.1-0.2,0.2-0.4,0.2-0.5c0-0.2,0.1-0.3,0-0.4c0-0.1-0.1-0.2-0.2-0.2
					c0,0-0.1,0-0.2,0c-0.1,0-0.1,0-0.2,0c-0.1,0-0.1,0.1-0.2,0.1c-0.1,0.1-0.1,0.2-0.2,0.3l-0.2,0.4L35,5.8l-0.3,0.6l-1.1-0.6
					l1.2-2.2l0.5,0.3l-0.2,0.4l0,0c0.2-0.1,0.3-0.2,0.5-0.2c0.1,0,0.3,0,0.5,0.1c0.2,0.1,0.3,0.2,0.4,0.4c0.1,0.2,0.1,0.3,0.1,0.6
					c0,0.2-0.1,0.5-0.2,0.7c-0.1,0.3-0.3,0.6-0.5,0.9c-0.2,0.3-0.4,0.6-0.5,0.9c-0.2,0.2-0.4,0.4-0.5,0.5c-0.2,0.1-0.4,0.2-0.5,0.2
					c-0.2,0-0.4,0-0.6-0.2c-0.4-0.2-0.6-0.4-0.6-0.8c0-0.3,0-0.7,0.3-1.1l0.6,0.3C33.9,6.9,33.9,7,33.8,7z"/>
				<path class="st2" d="M32.2,6.2l0.2-0.4l0,0C32.2,5.9,32.1,6,31.9,6c-0.1,0.1-0.3,0.1-0.4,0c0,0,0,0-0.1,0c0,0,0,0-0.1,0l0.3-0.8
					c0,0,0.1,0,0.1,0.1c0,0,0.1,0,0.1,0c0.1,0,0.1,0,0.2,0c0.1,0,0.1,0,0.2,0c0.1,0,0.1-0.1,0.2-0.1c0.1-0.1,0.1-0.1,0.2-0.2L33.5,3
					l0.7,0.3l-1.3,3.2L32.2,6.2z"/>
				<path class="st2" d="M31.5,4.9c-0.1,0.2-0.2,0.4-0.4,0.5c-0.1,0.1-0.3,0.2-0.4,0.2c-0.2,0-0.3,0-0.5,0c-0.2-0.1-0.4-0.2-0.5-0.3
					c-0.1-0.1-0.2-0.3-0.2-0.4c0-0.2,0-0.4,0-0.6c0-0.2,0.1-0.5,0.2-0.8C29.8,3.2,29.9,3,30,2.8c0.1-0.2,0.2-0.4,0.4-0.5
					c0.1-0.1,0.3-0.2,0.4-0.2c0.2,0,0.3,0,0.5,0.1c0.2,0.1,0.4,0.1,0.5,0.3C31.9,2.5,32,2.7,32,2.9c0,0.2,0,0.4,0,0.6
					c0,0.2-0.1,0.5-0.2,0.8C31.7,4.5,31.6,4.7,31.5,4.9z M31.3,3.5c0-0.1,0.1-0.3,0.1-0.4c0-0.1,0-0.2,0-0.3c0-0.1-0.1-0.1-0.2-0.2
					c-0.1,0-0.3,0-0.4,0.2c-0.1,0.2-0.2,0.4-0.4,0.9c-0.1,0.4-0.2,0.7-0.2,0.9c0,0.2,0.1,0.3,0.2,0.4c0.1,0,0.2,0,0.2,0
					c0.1,0,0.1-0.1,0.2-0.2c0.1-0.1,0.1-0.2,0.2-0.3C31,4.3,31.1,4.2,31.1,4C31.2,3.8,31.2,3.7,31.3,3.5z"/>
				<path class="st2" d="M28.1,1.8c0.1-0.2,0.2-0.3,0.4-0.3c0.1,0,0.3-0.1,0.4,0c0.2,0,0.4,0.2,0.5,0.3c0.1,0.2,0.1,0.4,0,0.8
					l-0.5,2.5l-0.7-0.1l0.5-2.3c0-0.2,0-0.3,0-0.4c0-0.1-0.1-0.1-0.2-0.2C28.2,2,28,2.2,27.9,2.6l-0.5,2.2l-0.7-0.1l0.7-3.4l0.7,0.1
					L28.1,1.8L28.1,1.8z"/>
				<path class="st2" d="M25.7,4.5l0-0.4h0c-0.1,0.2-0.2,0.3-0.3,0.3c-0.1,0.1-0.2,0.1-0.4,0.1c-0.3,0-0.5-0.2-0.6-0.5
					c-0.1-0.3-0.1-0.8-0.1-1.4c0.1-0.6,0.2-1.1,0.3-1.3c0.2-0.3,0.4-0.4,0.7-0.4c0.1,0,0.2,0.1,0.3,0.1c0.1,0.1,0.2,0.2,0.2,0.3h0
					L26.1,0l0.7,0.1l-0.4,4.5L25.7,4.5z M25.8,2c0-0.2-0.1-0.3-0.3-0.3c-0.2,0-0.3,0.1-0.3,0.3c-0.1,0.2-0.1,0.5-0.2,0.8
					c0,0.4,0,0.7,0,0.8c0,0.2,0.1,0.3,0.3,0.3c0.2,0,0.3-0.1,0.3-0.3c0.1-0.2,0.1-0.5,0.1-0.8C25.8,2.4,25.8,2.2,25.8,2z"/>
				<path class="st2" d="M22.6,3.2c0-0.2,0.1-0.4,0.2-0.5c0.1-0.1,0.2-0.2,0.4-0.2c0.2,0,0.3,0.1,0.4,0.2c0.1,0.1,0.2,0.3,0.2,0.5
					c0,0.2-0.1,0.4-0.2,0.5c-0.1,0.1-0.2,0.2-0.4,0.2c-0.2,0-0.3-0.1-0.4-0.2C22.7,3.5,22.6,3.4,22.6,3.2z"/>
			</g>
		</g>
		<polygon class="st3" points="4.1,36.9 4,36.5 24,27.5 24,7 24.5,7 24.5,27.8 		"/>
		<polygon class="st3" points="42.1,37.1 24.2,27.9 24.4,27.5 42.3,36.7 		"/>
	</g>
	<circle class="st2" cx="24" cy="27.6" r="2"/>
</g>
</svg>
